<?xml version="1.0" standalone="no"?><!DOCTYPE svg PUBLIC "-//W3C//DTD SVG 1.1//EN" "http://www.w3.org/Graphics/SVG/1.1/DTD/svg11.dtd"><svg t="1714372982444" class="icon" viewBox="0 0 1024 1024" version="1.1" xmlns="http://www.w3.org/2000/svg" p-id="5411" xmlns:xlink="http://www.w3.org/1999/xlink" width="200" height="200"><path d="M511.700171 485.241566c-5.929036 0-11.858072-2.051729-16.649192-6.15928L112.093984 150.817937c-10.727319-9.195429-11.969613-25.345248-2.774183-36.072567 9.195429-10.726296 25.345248-11.970636 36.072567-2.77316l366.232079 313.927829L874.470405 112.045889c10.688433-9.243525 26.842345-8.073886 36.08587 2.612501s8.073886 26.841322-2.612501 36.084846L528.436344 479.007585C523.632945 483.162208 517.666046 485.241566 511.700171 485.241566z" fill="#989898" p-id="5412"></path><path d="M511.700171 926.776701c-5.929036 0-11.858072-2.051729-16.649192-6.15928L112.093984 592.353073c-10.727319-9.195429-11.969613-25.345248-2.774183-36.072567 9.195429-10.726296 25.345248-11.970636 36.072567-2.77316l366.232079 313.927829L874.470405 553.581024c10.688433-9.243525 26.842345-8.073886 36.08587 2.612501s8.073886 26.841322-2.612501 36.084846L528.436344 920.54272C523.632945 924.697343 517.666046 926.776701 511.700171 926.776701z" fill="#989898" p-id="5413"></path></svg>